<svg version="1.1" id="Layer_1" xmlns="http://www.w3.org/2000/svg" xmlns:xlink="http://www.w3.org/1999/xlink" x="0px" y="0px"
	 width="100%" viewBox="0 0 444 444" enable-background="new 0 0 444 444" xml:space="preserve">
<path fill="#000000" opacity="1.000000" stroke="none" 
	d="
M198.000000,445.000000 
	C132.018433,445.000000 66.536858,445.000000 1.027641,445.000000 
	C1.027641,297.060059 1.027641,149.120132 1.027641,1.090097 
	C148.898239,1.090097 296.796570,1.090097 444.847443,1.090097 
	C444.847443,148.999878 444.847443,296.999908 444.847443,445.000000 
	C362.786774,445.000000 280.643372,445.000000 198.000000,445.000000 
M154.059769,184.327866 
	C153.576981,186.893600 152.651337,189.477997 152.758392,192.018875 
	C152.837082,193.886566 153.860123,196.755722 155.197098,197.270599 
	C156.943405,197.943115 159.498001,196.964951 161.541046,196.237198 
	C162.626587,195.850525 163.366379,194.493286 164.821274,193.133789 
	C166.078186,190.150650 167.894852,187.269241 168.459930,184.160355 
	C169.292969,179.577164 164.417267,176.279114 160.273178,178.566711 
	C158.069641,179.783142 156.450363,182.057968 154.059769,184.327866 
M276.662140,229.918716 
	C276.713562,233.220062 276.765015,236.521423 276.356079,240.306946 
	C274.019989,245.972748 271.712708,251.659103 265.097717,254.803192 
	C260.748840,254.154526 256.399933,253.505844 251.644180,252.323746 
	C248.915298,249.226654 246.186417,246.129562 243.611893,242.263519 
	C240.980331,229.537842 235.321289,224.293777 224.159897,224.837799 
	C219.230942,224.386414 215.136856,225.870117 211.584579,230.298706 
	C210.462845,231.878265 209.341095,233.457840 207.730347,235.678146 
	C207.456497,238.106949 207.182663,240.535767 206.673447,243.602524 
	C207.431458,246.226501 208.112976,248.875595 208.963974,251.469055 
	C210.554169,256.315308 212.242737,261.129303 213.609406,266.573669 
	C211.720505,270.043335 209.831619,273.512970 207.244919,277.136475 
	C204.758255,278.557007 202.271591,279.977570 199.072662,281.591461 
	C194.528519,285.108856 194.168411,288.752289 197.992035,292.664490 
	C202.393204,297.167572 207.617401,299.461548 214.784393,298.787109 
	C218.761230,298.023590 223.053146,297.895782 225.850372,293.112091 
	C225.387009,290.234131 225.900696,286.479492 224.263474,284.654755 
	C220.477051,280.434723 220.214935,275.993134 221.212006,270.313660 
	C223.115097,267.465088 225.018188,264.616516 227.570343,261.737946 
	C229.050446,260.839203 230.530563,259.940491 232.829224,259.050110 
	C234.915009,258.606628 237.000793,258.163177 239.660065,258.222076 
	C249.608612,259.683472 256.146454,264.342987 256.900299,275.336029 
	C257.009857,276.933868 260.173218,279.556396 261.910004,279.545502 
	C265.279480,279.524414 268.639282,277.968719 272.708984,276.998932 
	C274.910889,274.512756 277.112793,272.026581 279.859558,269.072693 
	C280.790710,265.663452 283.260223,261.738556 282.326935,258.954285 
	C280.487518,253.466690 281.122559,248.337692 282.203583,242.517242 
	C283.443817,239.378021 284.684021,236.238800 286.572174,233.127197 
	C287.428680,232.181763 288.285187,231.236328 289.765106,229.998077 
	C297.230835,224.460083 295.297028,209.476837 290.248444,203.844971 
	C286.161621,199.285934 283.801392,198.919189 278.090454,201.440521 
	C272.851776,203.753326 273.116913,208.623627 271.712097,213.504028 
	C273.437744,218.684158 275.163361,223.864288 276.662140,229.918716 
M182.615402,253.300354 
	C180.475281,242.537888 174.902771,237.067749 165.292679,236.841278 
	C163.243866,238.241333 161.195053,239.641388 158.447632,241.440613 
	C155.429199,248.828293 157.521713,258.017548 163.362823,263.025696 
	C169.686890,268.447937 176.535049,268.285095 180.832397,262.100281 
	C181.331665,259.411530 181.830933,256.722778 182.615402,253.300354 
M217.438431,152.366852 
	C214.850647,157.066757 215.584717,161.111847 220.186462,163.461563 
	C222.814713,164.803619 226.064331,164.928802 229.765381,165.769882 
	C232.110733,164.712662 234.734711,164.026596 236.742279,162.519440 
	C240.674683,159.567291 240.581421,155.630844 236.932724,152.557922 
	C231.767258,148.207581 224.180389,147.964142 217.438431,152.366852 
M171.060059,204.344635 
	C170.909988,206.801254 170.616211,209.258942 170.634399,211.714310 
	C170.718658,223.082947 181.329727,229.942993 192.647018,225.678513 
	C194.101654,224.462036 195.556305,223.245560 197.696838,221.994186 
	C199.836731,218.675690 201.976624,215.357193 204.520081,211.713608 
	C204.722153,211.244308 204.924240,210.774994 205.775131,210.008926 
	C208.834152,208.266998 211.893158,206.525070 215.760178,204.817474 
	C219.693970,206.272995 223.623138,207.741165 227.563019,209.180038 
	C230.723083,210.334106 233.896149,211.452621 237.892899,212.760788 
	C241.649139,211.590775 245.405365,210.420776 249.789642,208.973511 
	C256.707336,202.262970 256.674896,191.326782 249.716537,184.319061 
	C241.426407,175.970169 231.692413,175.479340 223.696213,183.492157 
	C222.155731,186.365143 220.615234,189.238129 218.444595,192.400131 
	C215.633835,194.097443 212.823074,195.794769 209.154556,197.731949 
	C198.859055,197.848297 193.217865,192.850418 191.589462,181.179199 
	C193.516678,176.513275 195.443893,171.847351 198.071136,167.252274 
	C200.347488,165.207962 203.203003,163.531891 204.783951,161.045425 
	C208.486145,155.222687 205.210541,150.123001 198.187851,149.738007 
	C192.877945,149.446899 188.129395,150.536438 183.408783,154.301208 
	C175.785095,159.294052 175.330276,166.373047 179.928284,169.463791 
	C183.160187,171.636276 183.714127,174.551331 183.660828,178.630768 
	C183.242477,181.420624 182.824127,184.210480 181.953156,187.590698 
	C181.445480,188.978714 180.937805,190.366730 179.862503,192.030457 
	C178.156219,194.136032 176.449921,196.241623 174.140015,198.744812 
	C173.297363,200.442490 172.454727,202.140182 171.060059,204.344635 
M273.453461,171.055618 
	C269.003265,167.192749 264.837494,166.512772 262.526154,169.271973 
	C260.365997,171.850693 261.410217,177.101456 264.750610,180.457428 
	C268.122559,183.845108 273.897797,185.154953 275.834534,182.557617 
	C278.859863,178.500336 276.604462,174.892578 273.453461,171.055618 
M238.081345,290.800079 
	C236.297653,293.729736 236.844086,296.134338 240.305435,296.723053 
	C245.048065,297.529602 249.613876,296.588287 252.944489,292.766663 
	C253.871552,291.702911 254.642349,289.640259 254.222031,288.502258 
	C253.782211,287.311401 251.919495,286.167145 250.509201,285.901093 
	C245.784149,285.009674 241.791321,286.700043 238.081345,290.800079 
z"/>
<path fill="#8475F5" opacity="1.000000" stroke="none" 
	d="
M243.457550,243.032471 
	C246.186417,246.129562 248.915298,249.226654 251.887115,252.949203 
	C254.872482,257.000519 257.534271,260.495026 260.377167,263.835358 
	C264.178955,268.302429 268.121185,272.649963 272.003113,277.048859 
	C268.639282,277.968719 265.279480,279.524414 261.910004,279.545502 
	C260.173218,279.556396 257.009857,276.933868 256.900299,275.336029 
	C256.146454,264.342987 249.608612,259.683472 239.337189,257.625977 
	C238.166656,255.668640 237.532104,254.098648 236.436539,252.980270 
	C229.750854,246.155365 222.990677,239.402267 216.175079,232.706940 
	C215.047913,231.599670 213.525635,230.894608 212.185959,230.003662 
	C215.136856,225.870117 219.230942,224.386414 224.728195,225.231689 
	C229.605850,230.324524 233.824539,235.112061 238.277817,239.670425 
	C239.681152,241.106888 241.713211,241.929123 243.457550,243.032471 
z"/>
<path fill="#30C5EF" opacity="1.000000" stroke="none" 
	d="
M224.215378,183.033188 
	C231.692413,175.479340 241.426407,175.970169 249.716537,184.319061 
	C256.674896,191.326782 256.707336,202.262970 249.306488,208.803635 
	C240.620682,200.100235 232.418030,191.566711 224.215378,183.033188 
z"/>
<path fill="#0FE2EC" opacity="1.000000" stroke="none" 
	d="
M272.210022,213.008133 
	C273.116913,208.623627 272.851776,203.753326 278.090454,201.440521 
	C283.801392,198.919189 286.161621,199.285934 290.248444,203.844971 
	C295.297028,209.476837 297.230835,224.460083 289.383850,229.787018 
	C283.405090,224.053360 277.807556,218.530746 272.210022,213.008133 
z"/>
<path fill="#48B2F5" opacity="1.000000" stroke="none" 
	d="
M223.955795,183.262665 
	C232.418030,191.566711 240.620682,200.100235 248.992462,208.942261 
	C245.405365,210.420776 241.649139,211.590775 237.451447,212.337189 
	C235.888336,210.319458 234.936737,208.565353 233.614487,207.159943 
	C228.835312,202.080261 223.931488,197.117813 219.074738,192.111115 
	C220.615234,189.238129 222.155731,186.365143 223.955795,183.262665 
z"/>
<path fill="#F602F5" opacity="1.000000" stroke="none" 
	d="
M180.262772,262.623779 
	C176.535049,268.285095 169.686890,268.447937 163.362823,263.025696 
	C157.521713,258.017548 155.429199,248.828293 159.125473,241.299774 
	C166.623138,248.313889 173.442947,255.468826 180.262772,262.623779 
z"/>
<path fill="#9B5FF5" opacity="1.000000" stroke="none" 
	d="
M174.743622,198.347198 
	C176.449921,196.241623 178.156219,194.136032 180.480591,192.058075 
	C186.936066,197.765060 192.696976,203.526810 198.665192,209.065186 
	C200.135742,210.429825 202.281281,211.067062 204.116516,212.038696 
	C201.976624,215.357193 199.836731,218.675690 197.189392,221.720703 
	C195.199844,219.876633 193.722672,218.301376 192.234833,216.736237 
	C186.406250,210.604828 180.574310,204.476608 174.743622,198.347198 
z"/>
<path fill="#5A98ED" opacity="1.000000" stroke="none" 
	d="
M183.890610,177.893005 
	C183.714127,174.551331 183.160187,171.636276 179.928284,169.463791 
	C175.330276,166.373047 175.785095,159.294052 183.766846,154.459503 
	C188.540314,158.805679 192.955704,162.993546 197.371109,167.181427 
	C195.443893,171.847351 193.516678,176.513275 191.143158,181.541687 
	C188.428101,180.567108 186.159348,179.230057 183.890610,177.893005 
z"/>
<path fill="#48B2F5" opacity="1.000000" stroke="none" 
	d="
M197.721130,167.216858 
	C192.955704,162.993546 188.540314,158.805679 184.054932,154.276581 
	C188.129395,150.536438 192.877945,149.446899 198.187851,149.738007 
	C205.210541,150.123001 208.486145,155.222687 204.783951,161.045425 
	C203.203003,163.531891 200.347488,165.207962 197.721130,167.216858 
z"/>
<path fill="#7A7BEF" opacity="1.000000" stroke="none" 
	d="
M183.775726,178.261887 
	C186.159348,179.230057 188.428101,180.567108 191.014496,181.923050 
	C193.217865,192.850418 198.859055,197.848297 209.667877,197.912384 
	C211.771530,200.322937 213.361847,202.553040 214.952164,204.783142 
	C211.893158,206.525070 208.834152,208.266998 205.376892,209.798889 
	C199.217682,203.121750 193.537384,196.579453 187.634689,190.244370 
	C186.285400,188.796204 184.169067,188.062744 182.405762,187.000336 
	C182.824127,184.210480 183.242477,181.420624 183.775726,178.261887 
z"/>
<path fill="#EC0EF6" opacity="1.000000" stroke="none" 
	d="
M225.273438,293.588287 
	C223.053146,297.895782 218.761230,298.023590 214.371216,298.352966 
	C212.876114,296.348022 211.941666,294.646118 210.684113,293.231445 
	C207.121841,289.224091 203.427338,285.334229 199.784912,281.398132 
	C202.271591,279.977570 204.758255,278.557007 207.932861,277.136871 
	C214.171677,282.620941 219.722565,288.104614 225.273438,293.588287 
z"/>
<path fill="#5A98ED" opacity="1.000000" stroke="none" 
	d="
M265.956848,254.885529 
	C271.712708,251.659103 274.019989,245.972748 276.768982,240.355835 
	C278.673828,241.270599 280.165802,242.136475 281.657745,243.002350 
	C281.122559,248.337692 280.487518,253.466690 282.326935,258.954285 
	C283.260223,261.738556 280.790710,265.663452 279.408936,268.977051 
	C274.624481,264.216095 270.290649,259.550812 265.956848,254.885529 
z"/>
<path fill="#B345F4" opacity="1.000000" stroke="none" 
	d="
M191.991455,225.578720 
	C181.329727,229.942993 170.718658,223.082947 170.634399,211.714310 
	C170.616211,209.258942 170.909988,206.801254 171.656799,204.253357 
	C178.344696,210.127304 184.476410,216.052307 190.480026,222.104370 
	C191.308945,222.940002 191.503311,224.405060 191.991455,225.578720 
z"/>
<path fill="#7A7BEF" opacity="1.000000" stroke="none" 
	d="
M265.527283,254.844360 
	C270.290649,259.550812 274.624481,264.216095 279.136475,269.210876 
	C277.112793,272.026581 274.910889,274.512756 272.356049,277.023895 
	C268.121185,272.649963 264.178955,268.302429 260.377167,263.835358 
	C257.534271,260.495026 254.872482,257.000519 252.090546,253.215912 
	C256.399933,253.505844 260.748840,254.154526 265.527283,254.844360 
z"/>
<path fill="#9B5FF5" opacity="1.000000" stroke="none" 
	d="
M211.885269,230.151184 
	C213.525635,230.894608 215.047913,231.599670 216.175079,232.706940 
	C222.990677,239.402267 229.750854,246.155365 236.436539,252.980270 
	C237.532104,254.098648 238.166656,255.668640 239.050446,257.374817 
	C237.000793,258.163177 234.915009,258.606628 232.359894,258.704468 
	C226.381561,252.526230 220.949097,246.618317 215.324539,240.899353 
	C213.183182,238.722092 210.600754,236.978607 208.219360,235.037415 
	C209.341095,233.457840 210.462845,231.878265 211.885269,230.151184 
z"/>
<path fill="#0FE2EC" opacity="1.000000" stroke="none" 
	d="
M217.968842,151.949463 
	C224.180389,147.964142 231.767258,148.207581 236.932724,152.557922 
	C240.581421,155.630844 240.674683,159.567291 236.742279,162.519440 
	C234.734711,164.026596 232.110733,164.712662 229.375412,165.349426 
	C225.313248,160.602463 221.641037,156.275955 217.968842,151.949463 
z"/>
<path fill="#B345F4" opacity="1.000000" stroke="none" 
	d="
M226.921295,261.767914 
	C225.018188,264.616516 223.115097,267.465088 220.790527,270.601990 
	C218.209488,269.245789 216.049927,267.601257 213.890366,265.956726 
	C212.242737,261.129303 210.554169,256.315308 208.963974,251.469055 
	C208.112976,248.875595 207.431458,246.226501 207.135925,243.345520 
	C214.039383,249.314972 220.480331,255.541443 226.921295,261.767914 
z"/>
<path fill="#5A98ED" opacity="1.000000" stroke="none" 
	d="
M215.356171,204.800308 
	C213.361847,202.553040 211.771530,200.322937 210.096741,197.792465 
	C212.823074,195.794769 215.633835,194.097443 218.759674,192.255615 
	C223.931488,197.117813 228.835312,202.080261 233.614487,207.159943 
	C234.936737,208.565353 235.888336,210.319458 237.036713,212.250244 
	C233.896149,211.452621 230.723083,210.334106 227.563019,209.180038 
	C223.623138,207.741165 219.693970,206.272995 215.356171,204.800308 
z"/>
<path fill="#0FE2EC" opacity="1.000000" stroke="none" 
	d="
M273.704834,171.307953 
	C276.604462,174.892578 278.859863,178.500336 275.834534,182.557617 
	C273.897797,185.154953 268.122559,183.845108 264.750610,180.457428 
	C261.410217,177.101456 260.365997,171.850693 262.526154,169.271973 
	C264.837494,166.512772 269.003265,167.192749 273.704834,171.307953 
z"/>
<path fill="#D121EF" opacity="1.000000" stroke="none" 
	d="
M213.749878,266.265198 
	C216.049927,267.601257 218.209488,269.245789 220.708374,270.946259 
	C220.214935,275.993134 220.477051,280.434723 224.263474,284.654755 
	C225.900696,286.479492 225.387009,290.234131 225.561905,293.350189 
	C219.722565,288.104614 214.171677,282.620941 208.281769,277.059937 
	C209.831619,273.512970 211.720505,270.043335 213.749878,266.265198 
z"/>
<path fill="#A952F7" opacity="1.000000" stroke="none" 
	d="
M227.245819,261.752930 
	C220.480331,255.541443 214.039383,249.314972 207.253632,243.026550 
	C207.182663,240.535767 207.456497,238.106949 207.974854,235.357788 
	C210.600754,236.978607 213.183182,238.722092 215.324539,240.899353 
	C220.949097,246.618317 226.381561,252.526230 231.950623,258.700317 
	C230.530563,259.940491 229.050446,260.839203 227.245819,261.752930 
z"/>
<path fill="#B345F4" opacity="1.000000" stroke="none" 
	d="
M238.325104,290.518921 
	C241.791321,286.700043 245.784149,285.009674 250.509201,285.901093 
	C251.919495,286.167145 253.782211,287.311401 254.222031,288.502258 
	C254.642349,289.640259 253.871552,291.702911 252.944489,292.766663 
	C249.613876,296.588287 245.048065,297.529602 240.305435,296.723053 
	C236.844086,296.134338 236.297653,293.729736 238.325104,290.518921 
z"/>
<path fill="#F602F5" opacity="1.000000" stroke="none" 
	d="
M199.428772,281.494781 
	C203.427338,285.334229 207.121841,289.224091 210.684113,293.231445 
	C211.941666,294.646118 212.876114,296.348022 213.983841,298.254761 
	C207.617401,299.461548 202.393204,297.167572 197.992035,292.664490 
	C194.168411,288.752289 194.528519,285.108856 199.428772,281.494781 
z"/>
<path fill="#EC0EF6" opacity="1.000000" stroke="none" 
	d="
M180.547577,262.362030 
	C173.442947,255.468826 166.623138,248.313889 159.474762,241.100189 
	C161.195053,239.641388 163.243866,238.241333 165.717590,237.260345 
	C171.538391,243.130951 176.934296,248.582489 182.330185,254.034027 
	C181.830933,256.722778 181.331665,259.411530 180.547577,262.362030 
z"/>
<path fill="#A952F7" opacity="1.000000" stroke="none" 
	d="
M192.319244,225.628616 
	C191.503311,224.405060 191.308945,222.940002 190.480026,222.104370 
	C184.476410,216.052307 178.344696,210.127304 171.932800,203.999969 
	C172.454727,202.140182 173.297363,200.442490 174.441818,198.546005 
	C180.574310,204.476608 186.406250,210.604828 192.234833,216.736237 
	C193.722672,218.301376 195.199844,219.876633 196.846436,221.738159 
	C195.556305,223.245560 194.101654,224.462036 192.319244,225.628616 
z"/>
<path fill="#30C5EF" opacity="1.000000" stroke="none" 
	d="
M271.961060,213.256073 
	C277.807556,218.530746 283.405090,224.053360 289.072144,229.933426 
	C288.285187,231.236328 287.428680,232.181763 285.967743,233.223206 
	C283.991455,232.807983 282.557800,232.417328 281.263824,231.754150 
	C279.742279,230.974380 278.341919,229.958130 276.888977,229.044434 
	C275.163361,223.864288 273.437744,218.684158 271.961060,213.256073 
z"/>
<path fill="#8475F5" opacity="1.000000" stroke="none" 
	d="
M182.179459,187.295517 
	C184.169067,188.062744 186.285400,188.796204 187.634689,190.244370 
	C193.537384,196.579453 199.217682,203.121750 205.052490,209.947281 
	C204.924240,210.774994 204.722153,211.244308 204.318298,211.876160 
	C202.281281,211.067062 200.135742,210.429825 198.665192,209.065186 
	C192.696976,203.526810 186.936066,197.765060 180.764404,191.920227 
	C180.937805,190.366730 181.445480,188.978714 182.179459,187.295517 
z"/>
<path fill="#7A7BEF" opacity="1.000000" stroke="none" 
	d="
M243.534714,242.647995 
	C241.713211,241.929123 239.681152,241.106888 238.277817,239.670425 
	C233.824539,235.112061 229.605850,230.324524 225.149353,225.322021 
	C235.321289,224.293777 240.980331,229.537842 243.534714,242.647995 
z"/>
<path fill="#9B5FF5" opacity="1.000000" stroke="none" 
	d="
M154.567368,183.855057 
	C156.450363,182.057968 158.069641,179.783142 160.273178,178.566711 
	C164.417267,176.279114 169.292969,179.577164 168.459930,184.160355 
	C167.894852,187.269241 166.078186,190.150650 164.446320,192.976471 
	C160.903351,189.831116 157.735367,186.843079 154.567368,183.855057 
z"/>
<path fill="#B345F4" opacity="1.000000" stroke="none" 
	d="
M154.313568,184.091461 
	C157.735367,186.843079 160.903351,189.831116 164.166809,193.196655 
	C163.366379,194.493286 162.626587,195.850525 161.541046,196.237198 
	C159.498001,196.964951 156.943405,197.943115 155.197098,197.270599 
	C153.860123,196.755722 152.837082,193.886566 152.758392,192.018875 
	C152.651337,189.477997 153.576981,186.893600 154.313568,184.091461 
z"/>
<path fill="#D121EF" opacity="1.000000" stroke="none" 
	d="
M182.472794,253.667191 
	C176.934296,248.582489 171.538391,243.130951 166.080048,237.343460 
	C174.902771,237.067749 180.475281,242.537888 182.472794,253.667191 
z"/>
<path fill="#30C5EF" opacity="1.000000" stroke="none" 
	d="
M217.703644,152.158157 
	C221.641037,156.275955 225.313248,160.602463 229.009796,165.265411 
	C226.064331,164.928802 222.814713,164.803619 220.186462,163.461563 
	C215.584717,161.111847 214.850647,157.066757 217.703644,152.158157 
z"/>
<path fill="#48B2F5" opacity="1.000000" stroke="none" 
	d="
M276.775574,229.481567 
	C278.341919,229.958130 279.742279,230.974380 281.263824,231.754150 
	C282.557800,232.417328 283.991455,232.807983 285.643799,233.209396 
	C284.684021,236.238800 283.443817,239.378021 281.930664,242.759796 
	C280.165802,242.136475 278.673828,241.270599 276.999176,240.113739 
	C276.765015,236.521423 276.713562,233.220062 276.775574,229.481567 
z"/>
</svg>